# AST/ASF file generated using VICON BodyLanguage
# -----------------------------------------------
:version 1.10
:name VICON
:units
  mass 1.0
  length 0.45
  angle deg
:documentation
   .ast/.asf automatically generated from VICON data using
   VICON BodyBuilder and BodyLanguage model FoxedUp or BRILLIANT.MOD
:root
   order TX TY TZ RX RY RZ
   axis XYZ
   position 0 0 0  
   orientation 0 0 0 
:bonedata
  begin
     id 1 
     name lhipjoint
     direction 0.734343 -0.627749 0.258209 
     length 2.5437 
     axis 0 0 0  XYZ
  end
  begin
     id 2 
     name lfemur
     direction 0.34202 -0.939693 0  
     length 6.7391  
     axis 0 0 20  XYZ
    dof rx ry rz
    limits (-160.0 20.0)
           (-70.0 70.0)
           (-60.0 70.0)
  end
  begin
     id 3 
     name ltibia
     direction 0.34202 -0.939693 0   
     length 7.21536   
     axis 0 0 20   XYZ
    dof rx
    limits (-10.0 170.0)
  end
  begin
     id 4 
     name lfoot
     direction 0.0489572 -0.134509 0.989702   
     length 1.61313   
     axis -90 7.62852e-016 20   XYZ
    dof rx rz
    limits (-45.0 90.0)
           (-70.0 20.0)
  end
  begin
     id 5 
     name ltoes
     direction 1.53451e-011 -4.21692e-011 1   
     length 0.823104   
     axis -90 7.62852e-016 20   XYZ
    dof rx
    limits (-90.0 20.0)
  end
  begin
     id 6 
     name rhipjoint
     direction -0.746398 -0.615468 0.253157   
     length 2.59446  
     axis 0 0 0  XYZ 
  end
  begin
     id 7 
     name rfemur
     direction -0.34202 -0.939693 0   
     length 6.7075   
     axis 0 0 -20   XYZ
    dof rx ry rz
    limits (-160.0 20.0)
           (-70.0 70.0)
           (-70.0 60.0)
  end
  begin
     id 8 
     name rtibia
     direction -0.34202 -0.939693 0   
     length 7.27262   
     axis 0 0 -20   XYZ
    dof rx
    limits (-10.0 170.0)
 end
 begin
     id 9 
     name rfoot
     direction -0.0455203 -0.125066 0.991104   
     length 1.91095  
     axis -90 -7.62852e-016 -20   XYZ
    dof rx rz
    limits (-45.0 90.0)
           (-20.0 70.0)
  end
  begin
     id 10 
     name rtoes
     direction -1.53601e-011 -4.21913e-011 1   
     length 0.969037   
     axis -90 -7.62852e-016 -20   XYZ
    dof rx
    limits (-90.0 20.0)
  end
  begin
     id 11 
     name lowerback
     direction 0.0181546 0.999122 -0.0377542   
     length 1.99916   
     axis 0 0 0   XYZ
    dof rx ry rz
    limits (-20.0 45.0)
           (-30.0 30.0)
           (-30.0 30.0)
  end
  begin
     id 12 
     name upperback
     direction 0.0203486 0.99589 0.0882534   
     length 1.951   
     axis 0 0 0   XYZ
    dof rx ry rz
    limits (-20.0 45.0)
           (-30.0 30.0)
           (-30.0 30.0)
  end
  begin
     id 13 
     name thorax
     direction 0.0131685 0.994241 0.106355   
     length 1.97461   
     axis 0 0 0   XYZ
    dof rx ry rz
    limits (-20.0 45.0)
           (-30.0 30.0)
           (-30.0 30.0)
  end
  begin
     id 14 
     name lowerneck
     direction -0.0281395 0.999325 0.023617   
     length 1.7959   
     axis 0 0 0   XYZ
    dof rx ry rz
    limits (-20.0 45.0)
           (-30.0 30.0)
           (-30.0 30.0)
  end
  begin
     id 15 
     name upperneck
     direction 0.0288721 0.991984 -0.123019   
     length 1.79917   
     axis 0 0 0   XYZ
    dof rx ry rz
    limits (-20.0 45.0)
           (-30.0 30.0)
           (-30.0 30.0)
  end
  begin
     id 16
     name head
     direction 0.0133797 0.998944 -0.0439492  
     length 1.80902  
     axis 0 0 0   XYZ
    dof rx ry rz
    limits (-20.0 45.0)
           (-30.0 30.0)
           (-30.0 30.0)
  end
  begin
     id 17 
     name lclavicle
     direction 0.919195 0.377107 0.113449  
     length 3.17815  
     axis 0 0 0   XYZ
    dof ry rz
    limits (-20.0 10.0)
           (0.0 20.0)
  end
  begin
     id 18 
     name lhumerus
     direction 1 -4.48959e-011 2.13129e-027   
     length 4.84137   
     axis 180 -30 -90   XYZ
    dof rx ry rz
    limits (-60.0 90.0)
           (-90.0 90.0)
           (-90.0 90.0)
  end
  begin
     id 19
     name lradius
     direction 1 -4.48957e-011 -6.30627e-028   
     length 3.2452   
     axis 180 -30 -90   XYZ
    dof rx
    limits (-10.0 170.0)
  end
  begin
     id 20
     name lwrist
     direction 1 -4.4901e-011 9.13299e-027   
     length 1.6226   
     axis -6.84618e-015 90 90   XYZ
    dof ry
    limits (-180.0 0.0)
 end
  begin
     id 21 
     name lhand
     direction 1 -4.48816e-011 1.82293e-026   
     length 0.521221   
     axis -1.16502e-014 90 90   XYZ
    dof rx rz
    limits (-90.0 90.0)
           (-45.0 45.0)
  end
  begin
     id 22 
     name lfingers
     direction 1 -4.49108e-011 3.65687e-026   
     length 0.420221   
     axis -2.33008e-014 90 90   XYZ
    dof rx
    limits (0.0 90.0)
  end
  begin
     id 23
     name lthumb
     direction 0.707107 -6.34943e-011 0.707107   
     length 0.603356   
     axis -90 45 5.69224e-014   XYZ
    dof rx rz
    limits (-45.0 45.0)
           (-45.0 45.0)
  end
  begin
     id 24 
     name rclavicle
     direction -0.90847 0.38596 0.160368   
     length 3.12973  
     axis 0 0 0   XYZ 
    dof ry rz
    limits (-10.0 20.0)
           (-20.0 0.0)
  end
  begin
     id 25 
     name rhumerus
     direction -1 -4.48974e-011 4.47268e-028  
     length 4.72284   
     axis 180 30 90   XYZ
    dof rx ry rz
    limits (-90.0 60.0)
           (-90.0 90.0)
           (-90.0 90.0)
  end
  begin
     id 26 
     name rradius
     direction -1 -4.48969e-011 3.43203e-027   
     length 3.23459   
     axis 180 30 90   XYZ
    dof rx
    limits (-10.0 170.0)
  end
  begin
     id 27 
     name rwrist
     direction -1 -4.48969e-011 9.12911e-027   
     length 1.6173   
     axis -6.84618e-015 -90 -90   XYZ
    dof ry
    limits (-180.0 0.0)
  end
  begin
     id 28
     name rhand
     direction -1 -4.49194e-011 1.83006e-026   
     length 0.307416   
     axis -1.16502e-014 -90 -90   XYZ
    dof rx rz
    limits (-90.0 90.0)
           (-45.0 45.0)
  end
  begin
     id 29
     name rfingers
     direction -1 -4.48423e-011 3.63103e-026   
     length 0.247847   
     axis -2.33008e-014 -90 -90   XYZ
    dof rx
    limits (0.0 90.0)
  end
  begin
     id 30
     name rthumb
     direction -0.707107 -6.34802e-011 0.707107   
     length 0.35586   
     axis -90 -45 -5.69224e-014   XYZ
    dof rx rz
    limits (-45.0 45.0)
           (-45.0 45.0)
  end
:hierarchy
  begin
    root lhipjoint rhipjoint lowerback
    lhipjoint lfemur
    lfemur ltibia
    ltibia lfoot
    lfoot ltoes
    rhipjoint rfemur
    rfemur rtibia
    rtibia rfoot
    rfoot rtoes
    lowerback upperback
    upperback thorax
    thorax lowerneck lclavicle rclavicle
    lowerneck upperneck
    upperneck head
    lclavicle lhumerus
    lhumerus lradius
    lradius lwrist
    lwrist lhand lthumb
    lhand lfingers
    rclavicle rhumerus
    rhumerus rradius
    rradius rwrist
    rwrist rhand rthumb
    rhand rfingers
  end

#!OML:ASF H:\Terrain\Patient Classification 1\Animal1\Tuesday\Animal1.ASF
:FULLY-SPECIFIED
:DEGREES
607
root 8.48831 16.7584 -3.64786 6.03321 -0.699557 1.70242
lowerback -1.599 -0.487657 -0.235921
upperback 5.90969 -0.651998 0.163125
thorax 7.05151 -0.340873 0.252141
lowerneck -12.6939 1.63396 -5.88727
upperneck 7.19092 2.32925 8.67983
head 4.04034 1.49366 3.8064
rclavicle -7.05686e-015 -2.98177e-015
rhumerus 20.3439 -19.5764 -42.4285
rradius 66.8814
rwrist -50.0749
rhand -21.9856 31.3002
rfingers 7.12502
rthumb 4.42264 1.36636
lclavicle -7.05686e-015 -2.98177e-015
lhumerus 11.0033 -20.0399 34.1658
lradius 76.9899
lwrist 13.0946
lhand -3.60143 48.0005
lfingers 7.12502
lthumb 22.1367 76.7532
rfemur -18.5483 11.802 19.1082
rtibia 24.6441
rfoot -12.1945 -32.2396
rtoes 23.3835
lfemur -13.3088 -10.9003 -16.6132
ltibia 13.4791
lfoot -6.44264 21.2543
ltoes -2.90626
608
root 8.48739 16.7599 -3.6519 5.9683 -0.673667 1.63591
lowerback -1.46199 -0.459243 -0.172185
upperback 5.85939 -0.619026 0.193087
thorax 6.91749 -0.321882 0.251669
lowerneck -12.5446 1.71651 -5.85276
upperneck 7.09414 2.4281 8.73476
head 3.97873 1.54294 3.81961
rclavicle -3.8763e-015 4.96962e-015
rhumerus 20.3138 -18.2359 -41.9644
rradius 67.5073
rwrist -50.7012
rhand -22.4493 31.6378
rfingers 7.12502
rthumb 3.97488 1.6951
lclavicle -3.8763e-015 4.96962e-015
lhumerus 11.8364 -21.9096 33.5553
lradius 77.3969
lwrist 13.7128
lhand -3.95072 48.1943
lfingers 7.12502
lthumb 21.8013 76.9864
rfemur -18.475 11.8052 19.1897
rtibia 24.5844
rfoot -12.3606 -32.2704
rtoes 24.4992
lfemur -13.3272 -10.918 -16.5371
ltibia 13.5928
lfoot -6.65758 21.2133
ltoes -2.3254
609
root 8.4882 16.7595 -3.65542 5.929 -0.712969 1.6082
lowerback -1.43286 -0.418183 -0.144196
upperback 5.87292 -0.5667 0.213217
thorax 6.91465 -0.29516 0.261062
lowerneck -12.6622 1.83468 -5.76012
upperneck 7.15804 2.57055 8.75783
head 4.00754 1.6199 3.82397
rclavicle 9.34288e-015 1.59028e-015
rhumerus 20.5822 -17.0605 -41.6581
rradius 67.9641
rwrist -51.3422
rhand -21.372 31.4462
rfingers 7.12502
rthumb 5.01512 1.52558
lclavicle 9.34288e-015 1.59028e-015
lhumerus 12.6991 -23.5806 33.019
lradius 77.6858
lwrist 14.3359
lhand -4.12137 48.1115
lfingers 7.12502
lthumb 21.6374 76.9226
rfemur -18.3931 11.8429 19.2147
rtibia 24.468
rfoot -12.3764 -32.2673
rtoes 24.5784
lfemur -13.4451 -10.8617 -16.5242
ltibia 13.8857
lfoot -6.67501 21.2309
ltoes -3.66195
610
root 8.48788 16.7572 -3.65887 5.9979 -0.731938 1.47317
lowerback -1.58619 -0.397002 -0.0169769
upperback 5.92451 -0.548294 0.264315
thorax 7.05806 -0.280635 0.243225
lowerneck -12.8961 1.91082 -5.76402
upperneck 7.22698 2.66474 8.90924
head 4.05776 1.68032 3.88396
rclavicle 1.21259e-014 1.78906e-015
rhumerus 21.0685 -15.9221 -41.4158
rradius 68.2123
rwrist -51.7716
rhand -19.7229 31.5467
rfingers 7.12502
rthumb 6.60728 1.66976
lclavicle 1.21259e-014 1.78906e-015
lhumerus 13.3971 -24.9911 32.6805
lradius 77.9401
lwrist 15.1778
lhand -3.89197 47.9263
lfingers 7.12502
lthumb 21.8577 76.7118
rfemur -18.4039 11.889 19.344
rtibia 24.3027
rfoot -12.3088 -32.2408
rtoes 24.3861
lfemur -13.7226 -10.7821 -16.3561
ltibia 14.2351
lfoot -6.76285 21.1944
ltoes -4.13834
611
root 8.48612 16.7521 -3.66269 6.09835 -0.655178 1.15151
lowerback -1.72243 -0.443116 0.306298
upperback 5.89163 -0.633627 0.36036
thorax 7.10006 -0.307487 0.154975
lowerneck -12.7828 1.98764 -5.77179
upperneck 7.12471 2.7573 9.04687
head 3.99911 1.7307 3.92989
rclavicle 1.08338e-014 -5.36719e-015
rhumerus 21.5346 -14.5239 -41.069
rradius 68.3187
rwrist -51.718
rhand -20.1657 32.9419
rfingers 7.12502
rthumb 6.17983 3.05203
lclavicle 1.08338e-014 -5.36719e-015
lhumerus 13.8158 -26.4061 32.4132
lradius 78.2871
lwrist 15.9006
lhand -3.18874 48.1336
lfingers 7.12502
lthumb 22.5328 76.8388
rfemur -18.4638 11.8348 19.7177
rtibia 24.2128
rfoot -11.4964 -32.4109
rtoes 22.5178
lfemur -13.9341 -10.6667 -15.9645
ltibia 14.3623
lfoot -6.96306 21.0047
ltoes -3.21916
612
root 8.48811 16.7517 -3.65841 6.021 -0.523443 1.08444
lowerback -2.9853 -0.257497 0.195302
upperback 6.05673 -0.391831 0.451769
thorax 8.0166 -0.196949 0.326291
lowerneck -10.3441 2.06835 -5.07058
upperneck 5.72714 2.78507 8.60093
head 3.19205 1.67649 3.60473
rclavicle 1.09332e-015 9.14409e-015
rhumerus 21.2213 -13.4054 -40.1739
rradius 68.5534
rwrist -51.8165
rhand -21.3976 33.0357
rfingers 7.12502
rthumb 4.99049 3.11444
lclavicle 1.09332e-015 9.14409e-015
lhumerus 15.0136 -28.5259 32.0013
lradius 78.5751
lwrist 16.1664
lhand -2.72891 47.8337
lfingers 7.12502
lthumb 22.9741 76.4846
rfemur -18.3164 11.6081 19.8514
rtibia 24.2249
rfoot -10.8909 -32.5186
rtoes 21.0815
lfemur -13.8171 -10.7279 -15.9251
ltibia 14.339
lfoot -6.89785 20.9352
ltoes -3.01616
613
root 8.49038 16.7594 -3.64867 5.79705 -0.557357 1.55114
lowerback -1.80113 -0.575731 0.0662568
upperback 6.02889 -0.791005 0.228288
thorax 7.29468 -0.394273 0.137426
lowerneck -13.0434 2.26279 -5.46622
upperneck 7.2665 3.07617 9.04662
head 4.06519 1.90294 3.9081
rclavicle 4.67144e-015 2.98177e-015
rhumerus 22.545 -11.7404 -40.3942
rradius 68.7939
rwrist -52.7386
rhand -21.7356 29.5137
rfingers 7.12502
rthumb 4.66403 -0.41491
lclavicle 4.67144e-015 2.98177e-015
lhumerus 15.0799 -29.3862 31.476
lradius 78.7496
lwrist 16.2214
lhand -2.49019 47.0791
lfingers 7.12502
lthumb 23.2032 75.7014
rfemur -18.0797 11.4863 19.3748
rtibia 24.3308
rfoot -11.7184 -32.3044
rtoes 22.9681
lfemur -13.3883 -10.9369 -16.5053
ltibia 14.1866
lfoot -7.08322 21.0018
ltoes -1.18911
614
root 8.4894 16.763 -3.6497 5.66359 -0.7143 1.91652
lowerback -1.56767 -0.348309 -0.493043
upperback 6.06934 -0.453453 0.191413
thorax 7.20577 -0.25904 0.440589
lowerneck -13.3636 2.16567 -5.17266
upperneck 7.39669 2.89432 9.06823
head 4.17601 1.83103 3.865
rclavicle 1.98785e-016 -2.38542e-015
rhumerus 22.4812 -10.7166 -39.4622
rradius 69.3027
rwrist -53.7123
rhand -20.0907 31.9548
rfingers 7.12502
rthumb 6.25228 2.06703
lclavicle 1.98785e-016 -2.38542e-015
lhumerus 16.3957 -30.9406 30.9868
lradius 78.8033
lwrist 16.3576
lhand -1.80606 46.2766
lfingers 7.12502
lthumb 23.8594 74.8147
rfemur -18.0955 11.5997 18.9698
rtibia 24.5538
rfoot -12.5896 -32.0501
rtoes 25.0379
lfemur -12.9761 -10.9775 -16.9272
ltibia 13.7616
lfoot -7.27248 21.0348
ltoes 0.69888
615
root 8.48954 16.7576 -3.66129 5.72929 -0.739553 1.97165
lowerback -1.52961 -0.35571 -0.531242
upperback 6.01904 -0.460974 0.182116
thorax 7.13001 -0.264354 0.452066
lowerneck -13.2911 2.29343 -5.13407
upperneck 7.42452 3.04335 9.18816
head 4.16038 1.91148 3.90492
rclavicle 9.93923e-016 -3.97569e-015
rhumerus 22.8117 -9.24715 -38.9312
rradius 69.8169
rwrist -53.6733
rhand -20.8855 32.967
rfingers 7.12502
rthumb 5.48487 3.05803
lclavicle 9.93923e-016 -3.97569e-015
lhumerus 17.0453 -32.2938 30.5151
lradius 79.1338
lwrist 16.6774
lhand -0.326731 45.6037
lfingers 7.12502
lthumb 25.2774 73.949
rfemur -18.379 11.6293 18.8746
rtibia 24.8236
rfoot -12.6944 -31.9569
rtoes 25.2432
lfemur -12.8962 -10.9097 -16.9669
ltibia 13.2675
lfoot -6.57498 21.0864
ltoes -1.43863
616
root 8.49078 16.7534 -3.669 5.77182 -0.705255 2.00122
lowerback -1.5311 -0.441083 -0.46865
upperback 5.98964 -0.577058 0.155227
thorax 7.09979 -0.317052 0.380121
lowerneck -13.3278 2.47363 -5.1242
upperneck 7.51328 3.26847 9.30395
head 4.17474 2.03119 3.9568
rclavicle -2.28602e-015 7.95139e-016
rhumerus 23.3262 -7.84392 -38.7001
rradius 70.3602
rwrist -53.3765
rhand -20.6081 31.9307
rfingers 7.12502
rthumb 5.75273 2.0288
lclavicle -2.28602e-015 7.95139e-016
lhumerus 17.5415 -33.6243 29.9576
lradius 79.559
lwrist 17.1071
lhand 0.542623 45.2047
lfingers 7.12502
lthumb 26.11 73.4298
rfemur -18.5626 11.5407 18.825
rtibia 25.0185
rfoot -12.5762 -32.0018
rtoes 24.5688
lfemur -12.8776 -10.9038 -16.9853
ltibia 12.9871
lfoot -6.07275 21.1323
ltoes -3.27995
